<svg width="286" height="243" viewBox="0 0 286 243" fill="none" xmlns="http://www.w3.org/2000/svg">
<path d="M186.528 6.63278C205.176 19.8123 199.657 50.3234 213.545 68.3907C225.496 83.9381 248.634 87.1937 260.471 102.827C273.984 120.673 285.239 141.64 285.909 163.958C286.602 187.023 283.685 216.186 264.257 228.844C242.109 243.275 212.104 226.214 185.785 229.194C170.738 230.898 157.814 245.667 142.993 242.576C127.693 239.386 122.984 215.736 107.614 212.896C87.2179 209.127 67.4519 230.027 47.3571 224.905C27.2807 219.787 4.43934 205.772 0.433873 185.577C-3.74531 164.506 23.5277 149.208 28.1838 128.236C32.3631 109.411 21.2179 89.9029 25.8321 71.1788C31.1718 49.5106 38.2855 25.4337 56.6746 12.6211C74.9812 -0.134028 100.004 4.96489 122.343 3.93469C144.006 2.9357 168.86 -5.85399 186.528 6.63278Z" fill="#03989E" fill-opacity="0.79"/>
</svg>
