<svg width="181" height="177" viewBox="0 0 181 177" fill="none" xmlns="http://www.w3.org/2000/svg">
<path d="M95.1402 33.0337C105.112 36.862 115.08 21.6028 125.478 24.0446C135.26 26.3417 138.885 38.5673 146.521 45.0992C157.547 54.5316 178.656 56.8643 180.646 71.2376C182.588 85.2683 160.292 91.2029 154.704 104.218C149.484 116.376 159 133.606 149.79 143.105C140.695 152.484 123.403 143.375 111.504 148.769C97.6311 155.056 91.1174 178.098 75.9635 176.567C61.0538 175.061 59.6174 151.425 47.7118 142.324C36.913 134.069 13.0675 139.998 10.6314 126.626C7.61508 110.068 39.3414 101.103 37.1623 84.4149C34.8484 66.6955 -2.86425 64.1531 0.174065 46.5434C2.87672 30.8792 32.98 44.1521 45.7437 34.678C56.2252 26.8978 49.8221 0.441387 62.8683 0.00712125C78.4471 -0.511447 80.5883 27.4469 95.1402 33.0337Z" fill="#03989E"/>
</svg>
