<svg width="183" height="183" viewBox="0 0 183 183" fill="none" xmlns="http://www.w3.org/2000/svg">
<path d="M125.635 1.06178C140.92 8.20396 130.098 34.2027 136.313 49.8877C139.871 58.867 147.878 64.9057 153.918 72.4424C162.668 83.3594 176.455 91.0508 180.124 104.552C183.909 118.477 183.432 135.832 174.152 146.883C164.652 158.195 146.11 154.733 132.729 160.991C120.932 166.509 112.921 179.418 100.07 181.531C87.1254 183.659 72.9445 180.18 62.2539 172.577C51.8945 165.21 51.7656 149.194 42.4449 140.55C32.3796 131.215 14.1874 132.62 6.73703 121.091C-0.501144 109.889 -2.8337 92.8659 4.38627 81.6528C12.5405 68.9888 35.7816 74.5178 44.5912 62.3006C52.7753 50.9509 37.6755 30.3085 48.1224 20.9994C57.573 12.578 73.0215 29.1957 85.2808 26.0424C100.797 22.0514 111.12 -5.72032 125.635 1.06178Z" fill="#03989E"/>
</svg>
