<svg width="161" height="183" viewBox="0 0 161 183" fill="none" xmlns="http://www.w3.org/2000/svg">
<path d="M85.5966 50.3566C96.8088 57.435 111.066 39.7318 124.058 42.3801C138.15 45.2525 154.795 52.0275 159.849 65.4919C164.875 78.8794 149.804 91.9767 148.001 106.162C146.242 120 153.938 134.26 149.432 147.461C144.719 161.269 136.216 176.509 122.394 181.181C107.885 186.084 93.363 171.893 78.0509 171.584C65.3272 171.328 53.6934 181.971 41.2005 179.545C28.5382 177.085 16.9664 168.755 9.46424 158.262C2.18274 148.078 -1.03291 134.776 0.2911 122.327C1.51588 110.81 10.9754 102.267 16.5018 92.0896C20.2185 85.2447 26.2369 79.5557 27.6723 71.9003C30.1333 58.7738 22.5075 44.6394 27.7048 32.3371C33.4557 18.7246 43.7027 -3.83385 57.8123 0.557961C76.1922 6.27894 69.3192 40.0804 85.5966 50.3566Z" fill="#03989E"/>
</svg>
