<svg width="324" height="310" viewBox="0 0 324 310" fill="none" xmlns="http://www.w3.org/2000/svg">
<path d="M186.066 0.0810977C215.029 -2.39679 204.065 52.5915 224.971 71.333C241.71 86.3387 280.661 73.27 289.838 93.1067C299.479 113.947 258.685 133.784 264.093 155.898C271.225 185.06 334.92 198.567 322.367 226.113C309.807 253.672 258.35 227.968 227.39 236.438C211.184 240.872 199.835 253.586 186.554 263.268C165.997 278.255 153.025 305.452 127.229 309.46C103.176 313.197 80.0873 296.807 60.9633 282.78C42.1882 269.009 29.0685 249.967 18.792 229.924C8.81979 210.476 -5.43166 188.394 2.1277 168.033C10.2959 146.031 50.2623 145.03 58.4729 123.042C67.5844 98.6416 23.8843 61.3666 47.2239 47.2662C72.7889 31.8212 102.065 89.1339 130.716 79.3967C163.018 68.4189 151.806 3.01209 186.066 0.0810977Z" fill="#FF6F58" fill-opacity="0.9"/>
</svg>
